#!OML:ASF I:\Actors\actors\Patient Classification 2\Patient 1\Session 1\actor1.ASF
:FULLY-SPECIFIED
:DEGREES
515
root -0.807942 18.5907 4.68822 3.11197 -0.540852 -2.21989
lowerback 21.5449 0.265049 -0.886935
upperback 6.56373 0.230249 1.17281
thorax -4.88967 0.10301 1.70727
lowerneck -1.80872 2.32057 -3.05762
upperneck 2.63872 3.19653 -0.549375
head 1.0691 1.55724 0.382522
rclavicle -6.5102e-015 -2.48481e-016
rhumerus -49.4921 -1.33306 -75.292
rradius 61.0031
rwrist 7.07812
rhand 1.30608 -40.023
rfingers 7.12502
rthumb 26.8408 -68.138
lclavicle -6.5102e-015 -2.48481e-016
lhumerus 19.4716 -20.1392 30.0637
lradius 133.677
lwrist 48.7085
lhand -23.2164 -35.3492
lfingers 7.12502
lthumb 3.23408 -5.39395
rfemur -4.81636 0.514373 16.49
rtibia 12.2909
rfoot -17.2774 -8.86169
rtoes -11.2348
lfemur -15.5145 1.83577 -10.9251
ltibia 29.9311
lfoot -18.3239 7.36716
ltoes -57.2112
516
root -0.809536 18.5894 4.68096 3.13509 -0.479858 -2.23296
lowerback 21.6217 0.218829 -0.77369
upperback 6.55338 0.193472 1.16378
thorax -4.93871 0.0856266 1.64249
lowerneck -1.78847 2.36468 -2.99471
upperneck 1.83707 3.24434 -0.652184
head 0.817471 1.59213 0.331804
rclavicle 1.31695e-015 -7.55382e-015
rhumerus -49.5254 -1.36602 -75.2608
rradius 60.8622
rwrist 7.06121
rhand 1.37211 -39.9744
rfingers 7.12502
rthumb 26.9039 -68.0796
lclavicle 1.31695e-015 -7.55382e-015
lhumerus 19.7924 -19.4343 30.2087
lradius 133.583
lwrist 48.1446
lhand -22.9719 -36.3562
lfingers 7.12502
lthumb 3.47025 -6.40472
rfemur -4.89083 0.507982 16.506
rtibia 12.3561
rfoot -17.3573 -8.8362
rtoes -10.8324
lfemur -15.5923 1.73911 -10.9041
ltibia 29.956
lfoot -18.365 7.36998
ltoes -57.1479
517
root -0.81115 18.5895 4.67814 3.10035 -0.449638 -2.27047
lowerback 21.7279 0.177014 -0.64327
upperback 6.50953 0.165528 1.14351
thorax -5.03944 0.0729914 1.55389
lowerneck -1.81209 2.3921 -2.91781
upperneck 1.18249 3.27115 -0.664263
head 0.620102 1.61525 0.308835
rclavicle -4.96962e-016 2.93207e-015
rhumerus -49.6163 -1.4202 -75.2616
rradius 60.7147
rwrist 7.07996
rhand 1.36871 -40.0197
rfingers 7.12502
rthumb 26.9007 -68.1255
lclavicle -4.96962e-016 2.93207e-015
lhumerus 20.0531 -18.8564 30.221
lradius 133.412
lwrist 46.9187
lhand -22.6224 -37.4539
lfingers 7.12502
lthumb 3.80771 -7.50822
rfemur -4.84103 0.535237 16.5522
rtibia 12.3323
rfoot -17.3934 -8.82983
rtoes -10.5369
lfemur -15.5637 1.6773 -10.8551
ltibia 29.9568
lfoot -18.3989 7.35678
ltoes -57.1105
518
root -0.81269 18.5909 4.67653 3.0521 -0.447001 -2.27743
lowerback 21.8062 0.143205 -0.57797
upperback 6.45359 0.134279 1.11985
thorax -5.13906 0.0587103 1.49967
lowerneck -1.87244 2.43814 -2.77054
upperneck 0.637438 3.32431 -0.68027
head 0.464678 1.64972 0.275303
rclavicle 2.33572e-015 1.88348e-014
rhumerus -49.6932 -1.45493 -75.2769
rradius 60.5725
rwrist 7.14529
rhand 1.38275 -40.0833
rfingers 7.12502
rthumb 26.9141 -68.187
lclavicle 2.33572e-015 1.88348e-014
lhumerus 20.3116 -18.271 30.255
lradius 133.213
lwrist 45.7974
lhand -22.0412 -38.0039
lfingers 7.12502
lthumb 4.36896 -8.06892
rfemur -4.74925 0.596276 16.5691
rtibia 12.2522
rfoot -17.3929 -8.88402
rtoes -10.3601
lfemur -15.4958 1.65726 -10.8373
ltibia 29.9322
lfoot -18.4118 7.34052
ltoes -57.0864
519
root -0.814513 18.5913 4.67632 3.01412 -0.486548 -2.2292
lowerback 21.8508 0.131265 -0.580683
upperback 6.38387 0.116074 1.08308
thorax -5.23689 0.0509098 1.46679
lowerneck -1.89558 2.48797 -2.56269
upperneck 0.0305759 3.3802 -0.813035
head 0.288196 1.68529 0.195506
rclavicle 3.23025e-016 -1.05356e-014
rhumerus -49.7594 -1.53934 -75.2715
rradius 60.4522
rwrist 7.29484
rhand 1.41184 -40.1304
rfingers 7.12502
rthumb 26.942 -68.2297
lclavicle 3.23025e-016 -1.05356e-014
lhumerus 20.5769 -17.6998 30.2982
lradius 133.181
lwrist 45.0538
lhand -21.8471 -37.7547
lfingers 7.12502
lthumb 4.55638 -7.82369
rfemur -4.66276 0.651392 16.5257
rtibia 12.1488
rfoot -17.3616 -8.91019
rtoes -10.1919
lfemur -15.4228 1.67888 -10.8816
ltibia 29.8891
lfoot -18.402 7.36145
ltoes -57.1167
520
root -0.815707 18.5914 4.67848 2.99129 -0.582275 -2.17927
lowerback 21.8359 0.161608 -0.593729
upperback 6.32565 0.150432 1.05069
thorax -5.29333 0.0683047 1.43067
lowerneck -2.07346 2.51504 -2.45637
upperneck -0.492712 3.41323 -0.877407
head 0.160984 1.70792 0.156344
rclavicle 5.49143e-015 -6.4605e-015
rhumerus -49.7808 -1.79511 -75.1874
rradius 60.3124
rwrist 7.53341
rhand 1.39375 -40.1436
rfingers 7.12502
rthumb 26.9247 -68.2457
lclavicle 5.49143e-015 -6.4605e-015
lhumerus 20.9063 -17.1535 30.2244
lradius 133.303
lwrist 44.5922
lhand -22.3533 -37.08
lfingers 7.12502
lthumb 4.06761 -7.13912
rfemur -4.59994 0.721553 16.4704
rtibia 12.0546
rfoot -17.3245 -8.89951
rtoes -10.0816
lfemur -15.3453 1.73269 -10.9385
ltibia 29.8374
lfoot -18.3791 7.43526
ltoes -57.1757
521
root -0.81498 18.592 4.68285 2.9582 -0.669044 -2.1759
lowerback 21.7691 0.187289 -0.554479
upperback 6.28498 0.191391 1.04096
thorax -5.30426 0.088332 1.3871
lowerneck -2.31622 2.53889 -2.42812
upperneck -0.923709 3.44666 -0.808495
head 0.0691224 1.72978 0.172066
rclavicle 2.88238e-015 1.4561e-014
rhumerus -49.758 -2.07454 -75.048
rradius 60.1837
rwrist 7.63809
rhand 1.34694 -39.982
rfingers 7.12502
rthumb 26.8799 -68.0909
lclavicle 2.88238e-015 1.4561e-014
lhumerus 21.2582 -16.5543 30.0742
lradius 133.357
lwrist 44.6062
lhand -23.0675 -36.7741
lfingers 7.12502
lthumb 3.37792 -6.8211
rfemur -4.52501 0.787869 16.4641
rtibia 11.976
rfoot -17.299 -8.92439
rtoes -10.1833
lfemur -15.2521 1.76968 -10.9512
ltibia 29.7847
lfoot -18.3563 7.51104
ltoes -57.2143
